<?xml version="1.0" encoding="UTF-8" standalone="no"?>
<!-- Created with Inkscape (http://www.inkscape.org/) -->

<svg
   width="240.65565mm"
   height="60.608093mm"
   viewBox="0 0 240.65565 60.608094"
   version="1.1"
   id="svg5"
   inkscape:version="1.1.1 (3bf5ae0d25, 2021-09-20)"
   sodipodi:docname="LogoBoldFull.svg"
   xmlns:inkscape="http://www.inkscape.org/namespaces/inkscape"
   xmlns:sodipodi="http://sodipodi.sourceforge.net/DTD/sodipodi-0.dtd"
   xmlns="http://www.w3.org/2000/svg"
   xmlns:svg="http://www.w3.org/2000/svg"
   xmlns:rdf="http://www.w3.org/1999/02/22-rdf-syntax-ns#"
   xmlns:cc="http://creativecommons.org/ns#"
   xmlns:dc="http://purl.org/dc/elements/1.1/">
  <title
     id="title9493">Logo</title>
  <sodipodi:namedview
     id="namedview7"
     pagecolor="#ffffff"
     bordercolor="#666666"
     borderopacity="1.0"
     inkscape:pageshadow="2"
     inkscape:pageopacity="0.0"
     inkscape:pagecheckerboard="false"
     inkscape:document-units="mm"
     showgrid="true"
     showguides="false"
     inkscape:guide-bbox="true"
     inkscape:zoom="1.0028457"
     inkscape:cx="278.2083"
     inkscape:cy="-72.792853"
     inkscape:window-width="2880"
     inkscape:window-height="1514"
     inkscape:window-x="2869"
     inkscape:window-y="-11"
     inkscape:window-maximized="1"
     inkscape:current-layer="layer1"
     fit-margin-top="0"
     fit-margin-left="0"
     fit-margin-right="0"
     fit-margin-bottom="0"
     width="59.60809mm"
     scale-x="2">
    <sodipodi:guide
       position="78.669723,29.45483"
       orientation="0,-1"
       id="guide8389" />
    <sodipodi:guide
       position="30.910929,8.5603568"
       orientation="1,0"
       id="guide8391" />
    <inkscape:grid
       type="xygrid"
       id="grid8514"
       originx="-21.325249"
       originy="-69.214834" />
  </sodipodi:namedview>
  <defs
     id="defs2" />
  <g
     inkscape:label="Layer 1"
     inkscape:groupmode="layer"
     id="layer1"
     transform="translate(-21.325253,-69.214828)">
    <g
       aria-label="Softwareologists"
       id="text1815"
       style="font-size:35.2778px;line-height:1.25;font-family:'Big Shoulders Display';-inkscape-font-specification:'Big Shoulders Display, @wght=500';font-variation-settings:'wght' 500;stroke-width:0.264583">
      <path
         d="m 87.102888,112.00272 q -2.610557,0 -3.757086,-1.16417 -1.12889,-1.16417 -1.234723,-3.81 -0.01764,-1.02306 -0.03528,-1.88736 0,-0.88195 0.01764,-1.74625 0.03528,-0.88195 0.07056,-1.90501 h 2.592918 q -0.07055,1.51695 -0.08819,3.0339 0,1.51694 0.08819,2.94569 0.05292,1.14653 0.599723,1.69334 0.546806,0.5468 1.728612,0.5468 1.164167,0 1.658057,-0.5468 0.511528,-0.54681 0.599722,-1.69334 0.05292,-0.9525 0.07056,-1.69333 0.01764,-0.75847 -0.01764,-1.55223 -0.01764,-0.81138 -0.05292,-1.83444 -0.05292,-1.25236 -0.388055,-2.09903 -0.33514,-0.846668 -1.322918,-1.111251 l -1.975557,-0.511528 q -1.411112,-0.352778 -2.187224,-1.058334 -0.758472,-0.705556 -1.075973,-1.834446 -0.299861,-1.146528 -0.352778,-2.786946 -0.01764,-1.093612 0,-2.363613 0.01764,-1.270001 0.03528,-2.451807 0.05292,-1.76389 0.546806,-2.839863 0.493889,-1.093612 1.587501,-1.587501 1.093612,-0.493889 2.875141,-0.493889 2.522363,0 3.633614,1.146528 1.128889,1.146529 1.234723,3.792364 0.03528,0.9525 0.01764,2.345974 -0.01764,1.375834 -0.05292,2.857502 h -2.628196 q 0.05292,-1.393474 0.07056,-2.804586 0.01764,-1.428751 -0.03528,-2.822224 -0.05292,-1.164167 -0.599722,-1.693334 -0.546806,-0.546806 -1.658057,-0.546806 -1.181806,0 -1.693334,0.546806 -0.511528,0.529167 -0.582084,1.693334 -0.08819,1.28764 -0.08819,2.592919 0.01764,1.305278 0.08819,2.628196 0.03528,1.44639 0.370417,2.222501 0.352778,0.758473 1.393473,1.023057 l 1.834446,0.440972 q 1.464028,0.335139 2.24014,1.075973 0.776112,0.723195 1.075973,1.887362 0.3175,1.14653 0.370417,2.75167 0.03528,0.98778 0.03528,1.71097 0,0.70556 -0.01764,1.37584 -0.01764,0.67027 -0.03528,1.55222 -0.105833,2.64583 -1.252362,3.81 -1.12889,1.16417 -3.704169,1.16417 z"
         id="path1330" />
      <path
         d="m 99.926362,112.00272 q -1.76389,0 -2.822224,-0.49389 -1.058334,-0.49389 -1.552224,-1.56986 -0.47625,-1.09361 -0.564444,-2.83986 -0.03528,-1.32292 -0.07056,-2.82223 -0.01764,-1.51694 -0.01764,-3.08681 0,-1.587497 0.01764,-3.104443 0.03528,-1.516945 0.07056,-2.875141 0.08819,-1.76389 0.564444,-2.839863 0.49389,-1.075973 1.552224,-1.569862 1.058334,-0.493889 2.822224,-0.493889 1.781528,0 2.822228,0.511528 1.04069,0.493889 1.51694,1.569862 0.47625,1.075973 0.56445,2.822224 0.0353,1.322918 0.0529,2.839863 0.0353,1.516946 0.0353,3.086811 0,1.55222 -0.0353,3.0868 -0.0176,1.51695 -0.0529,2.87515 -0.0882,1.72861 -0.56445,2.82222 -0.47625,1.07597 -1.51694,1.5875 -1.0407,0.49389 -2.822228,0.49389 z m 0,-2.15195 q 1.146528,0 1.640418,-0.47625 0.51153,-0.49389 0.54681,-1.69333 0.0529,-1.79917 0.0705,-3.38667 0.0353,-1.60514 0.0353,-3.13972 0,-1.552227 -0.0353,-3.139728 -0.0176,-1.60514 -0.0705,-3.386669 -0.0353,-1.217085 -0.52917,-1.693335 -0.47625,-0.493889 -1.658058,-0.493889 -1.181806,0 -1.693335,0.493889 -0.493889,0.47625 -0.529167,1.693335 -0.05292,1.781529 -0.08819,3.386669 -0.01764,1.587501 -0.01764,3.139728 0,1.55222 0.01764,3.15736 0.03528,1.5875 0.08819,3.36903 0.03528,1.19944 0.546806,1.69333 0.511528,0.47625 1.675696,0.47625 z"
         id="path1332" />
      <path
         d="M 108.72812,111.73814 V 92.705762 h -1.71098 v -2.134307 h 1.71098 v -2.822224 q -0.0176,-2.416529 1.11125,-3.474863 1.12889,-1.058334 3.61597,-1.058334 0.49389,0 1.09361,0.07056 0.61736,0.07056 1.09362,0.15875 v 2.063752 q -0.49389,-0.05292 -1.0407,-0.07056 -0.52917,-0.03528 -1.11125,-0.03528 -1.11125,0 -1.5875,0.49389 -0.47625,0.47625 -0.47625,1.675695 v 2.998613 h 3.61597 v 2.134307 h -3.61597 v 19.032378 z"
         id="path1334" />
      <path
         d="m 121.40155,112.00272 q -2.66347,0 -3.70417,-1.05833 -1.02306,-1.07598 -1.02306,-3.49251 V 92.705762 h -1.51694 v -2.134307 h 1.55222 v -5.997226 h 2.71639 v 5.997226 h 3.21028 v 2.134307 h -3.24555 v 15.010708 q 0,1.23472 0.35277,1.71097 0.37042,0.45861 1.69334,0.45861 0.49389,0 0.81139,-0.0176 0.3175,-0.0353 0.74083,-0.0882 v 2.04611 q -0.35278,0.0706 -0.75847,0.12347 -0.4057,0.0529 -0.82903,0.0529 z"
         id="path1336" />
      <path
         d="m 125.84649,111.73814 -2.16958,-21.166685 h 2.68111 l 0.84667,10.671535 0.58208,8.39612 h 1.07598 l 0.42333,-8.39612 0.9525,-10.58334 h 5.02709 l 0.89958,10.58334 0.44097,8.39612 h 1.07598 l 0.59972,-8.39612 0.8643,-10.671535 h 2.73403 l -2.25777,21.166685 h -5.04473 l -0.58208,-8.13154 -0.65264,-10.847921 h -1.19945 l -0.68792,10.847921 -0.58208,8.13154 z"
         id="path1338" />
      <path
         d="m 147.17186,111.96744 q -1.79917,0 -2.64583,-1.02305 -0.84667,-1.02306 -1.02306,-3.10445 -0.0176,-0.44097 -0.0353,-0.89958 0,-0.45862 0.0176,-0.86431 0.0706,-1.27 0.44097,-2.25778 0.37042,-1.00542 1.16417,-1.83445 0.79375,-0.82902 2.18723,-1.56986 0.77611,-0.423332 1.5875,-0.811387 0.82903,-0.388056 1.67569,-0.723195 v -4.268614 q 0,-1.12889 -0.44097,-1.640418 -0.42333,-0.529167 -1.55222,-0.529167 -0.98778,0 -1.46403,0.458611 -0.47625,0.440973 -0.52917,1.640418 -0.0176,0.388056 -0.0353,1.005417 0,0.599723 0,1.234723 0.0176,0.635001 0.0353,1.111251 h -2.6282 q -0.0176,-0.617361 -0.0353,-1.499306 -0.0176,-0.899584 0,-1.60514 0.0529,-1.569863 0.52916,-2.557641 0.49389,-0.987778 1.51695,-1.44639 1.02306,-0.458611 2.69875,-0.458611 1.72861,0 2.73403,0.493889 1.00542,0.493889 1.42875,1.569862 0.42334,1.058334 0.42334,2.769308 v 16.58057 h -2.69876 v -1.95792 h -0.44097 q -0.40569,1.05833 -1.07597,1.62278 -0.65264,0.56444 -1.83445,0.56444 z m 0.9525,-2.06375 q 0.86431,0 1.46403,-0.49389 0.59972,-0.51153 0.93486,-1.46403 v -6.94972 q -0.59972,0.2293 -1.25236,0.5468 -0.635,0.3175 -1.37583,0.88195 -1.00542,0.70555 -1.34056,1.60514 -0.33514,0.88194 -0.38805,2.04611 -0.0176,0.3175 -0.0176,0.74083 0.0176,0.4057 0.0353,0.82903 0.0882,1.09361 0.58209,1.6757 0.51153,0.58208 1.35819,0.58208 z"
         id="path1340" />
      <path
         d="M 156.8732,111.73814 V 90.571455 h 2.71639 v 2.081391 h 0.54681 q 0.28222,-1.199446 0.93486,-1.675696 0.65264,-0.47625 1.76389,-0.47625 0.3175,0 0.635,0.01764 0.3175,0.01764 0.52917,0.03528 v 2.151946 h -1.12889 q -1.55222,0 -2.29306,0.564445 -0.72319,0.546806 -0.98778,1.746251 v 16.721682 z"
         id="path1342" />
      <path
         d="m 170.27873,111.98508 q -2.54,0 -3.66889,-1.05833 -1.12889,-1.05834 -1.23473,-3.47487 -0.0353,-1.32291 -0.0529,-2.92805 -0.0176,-1.60514 -0.0176,-3.31612 0,-1.710971 0.0176,-3.33375 0.0176,-1.622779 0.0529,-2.980974 0.12348,-2.469446 1.25237,-3.510141 1.14652,-1.058334 3.63361,-1.058334 2.41653,0 3.51014,1.040695 1.09361,1.040695 1.19945,3.421947 0.0176,0.546806 0.0353,1.587501 0.0176,1.040695 0,2.416529 0,1.375837 -0.0706,2.892777 h -6.91445 q 0,1.41111 0.0176,2.89278 0.0353,1.48167 0.0529,3.12209 0.0353,1.23472 0.52917,1.69333 0.51153,0.45861 1.62278,0.45861 1.09361,0 1.55222,-0.45861 0.45862,-0.45861 0.51153,-1.69333 0.0353,-0.61736 0.0353,-1.46403 0,-0.86431 -0.0353,-1.905 h 2.6282 q 0.0529,0.72319 0.0529,1.5875 0.0176,0.84667 -0.0176,1.53458 -0.10584,2.41653 -1.16417,3.47487 -1.0407,1.05833 -3.52778,1.05833 z m -2.25778,-12.34723 h 4.32153 q 0.0176,-1.058334 0.0176,-2.063751 0,-1.023056 -0.0176,-1.834446 -0.0176,-0.811389 -0.0353,-1.199445 -0.0529,-1.12889 -0.52917,-1.60514 -0.45861,-0.493889 -1.51694,-0.493889 -1.14653,0 -1.64042,0.493889 -0.49389,0.47625 -0.52917,1.60514 -0.0176,1.393473 -0.0353,2.645835 -0.0176,1.252362 -0.0353,2.451807 z"
         id="path1344" />
      <path
         d="m 182.94339,112.00272 q -1.76389,0 -2.82222,-0.49389 -1.05834,-0.49389 -1.55222,-1.56986 -0.47626,-1.09361 -0.56445,-2.83986 -0.0353,-1.32292 -0.0706,-2.82223 -0.0176,-1.51694 -0.0176,-3.08681 0,-1.587497 0.0176,-3.104443 0.0353,-1.516945 0.0706,-2.875141 0.0882,-1.76389 0.56445,-2.839863 0.49388,-1.075973 1.55222,-1.569862 1.05833,-0.493889 2.82222,-0.493889 1.78153,0 2.82223,0.511528 1.04069,0.493889 1.51694,1.569862 0.47625,1.075973 0.56445,2.822224 0.0353,1.322918 0.0529,2.839863 0.0353,1.516946 0.0353,3.086811 0,1.55222 -0.0353,3.0868 -0.0176,1.51695 -0.0529,2.87515 -0.0882,1.72861 -0.56445,2.82222 -0.47625,1.07597 -1.51694,1.5875 -1.0407,0.49389 -2.82223,0.49389 z m 0,-2.15195 q 1.14653,0 1.64042,-0.47625 0.51153,-0.49389 0.54681,-1.69333 0.0529,-1.79917 0.0705,-3.38667 0.0353,-1.60514 0.0353,-3.13972 0,-1.552227 -0.0353,-3.139728 -0.0176,-1.60514 -0.0705,-3.386669 -0.0353,-1.217085 -0.52917,-1.693335 -0.47625,-0.493889 -1.65806,-0.493889 -1.1818,0 -1.69333,0.493889 -0.49389,0.47625 -0.52917,1.693335 -0.0529,1.781529 -0.0882,3.386669 -0.0176,1.587501 -0.0176,3.139728 0,1.55222 0.0176,3.15736 0.0353,1.5875 0.0882,3.36903 0.0353,1.19944 0.54681,1.69333 0.51153,0.47625 1.67569,0.47625 z"
         id="path1346" />
      <path
         d="M 191.33945,111.73814 V 83.515895 h 2.71639 v 28.222245 z"
         id="path1348" />
      <path
         d="m 202.17848,112.00272 q -1.76389,0 -2.82223,-0.49389 -1.05833,-0.49389 -1.55222,-1.56986 -0.47625,-1.09361 -0.56445,-2.83986 -0.0353,-1.32292 -0.0705,-2.82223 -0.0176,-1.51694 -0.0176,-3.08681 0,-1.587497 0.0176,-3.104443 0.0353,-1.516945 0.0705,-2.875141 0.0882,-1.76389 0.56445,-2.839863 0.49389,-1.075973 1.55222,-1.569862 1.05834,-0.493889 2.82223,-0.493889 1.78153,0 2.82222,0.511528 1.0407,0.493889 1.51695,1.569862 0.47625,1.075973 0.56444,2.822224 0.0353,1.322918 0.0529,2.839863 0.0353,1.516946 0.0353,3.086811 0,1.55222 -0.0353,3.0868 -0.0176,1.51695 -0.0529,2.87515 -0.0882,1.72861 -0.56444,2.82222 -0.47625,1.07597 -1.51695,1.5875 -1.04069,0.49389 -2.82222,0.49389 z m 0,-2.15195 q 1.14653,0 1.64041,-0.47625 0.51153,-0.49389 0.54681,-1.69333 0.0529,-1.79917 0.0706,-3.38667 0.0353,-1.60514 0.0353,-3.13972 0,-1.552227 -0.0353,-3.139728 -0.0176,-1.60514 -0.0706,-3.386669 -0.0353,-1.217085 -0.52917,-1.693335 -0.47625,-0.493889 -1.65805,-0.493889 -1.18181,0 -1.69334,0.493889 -0.49389,0.47625 -0.52916,1.693335 -0.0529,1.781529 -0.0882,3.386669 -0.0176,1.587501 -0.0176,3.139728 0,1.55222 0.0176,3.15736 0.0353,1.5875 0.0882,3.36903 0.0353,1.19944 0.5468,1.69333 0.51153,0.47625 1.6757,0.47625 z"
         id="path1350" />
      <path
         d="m 215.16065,117.64717 q -2.36361,0 -3.70417,-0.7232 -1.32292,-0.70555 -1.48167,-2.29305 0,-0.15875 -0.0353,-0.38806 -0.0176,-0.21167 0,-0.45861 0.0706,-0.98778 0.68792,-1.56986 0.61736,-0.56445 1.48167,-0.68792 v -0.51153 q -0.79375,-0.2293 -1.23472,-0.67028 -0.44098,-0.45861 -0.49389,-1.16416 -0.0176,-0.15875 -0.0176,-0.3175 0,-0.15875 0.0176,-0.33514 0.0529,-0.74084 0.56444,-1.23473 0.52917,-0.49389 1.25236,-0.58208 v -0.51153 q -0.98777,-0.47625 -1.48166,-1.46403 -0.47625,-0.98778 -0.56445,-2.55764 -0.0176,-1.07597 -0.0353,-1.92264 -0.0176,-0.864304 -0.0176,-1.640416 0,-0.776112 0.0176,-1.658057 0.0176,-0.899583 0.0353,-2.063751 0.0882,-1.60514 0.58208,-2.610557 0.51153,-1.023056 1.55223,-1.481668 1.05833,-0.47625 2.78694,-0.47625 1.78153,0 2.80459,0.493889 1.04069,0.493889 1.53458,1.587501 h 0.51153 q 0.0706,-0.934862 0.61736,-1.375834 0.56445,-0.458612 1.56987,-0.458612 v 2.134307 h -0.56445 q -0.68792,0 -1.09361,0.582084 -0.4057,0.564445 -0.44097,1.76389 l -0.0176,1.852085 q 0.0176,0.705556 0.0176,1.340556 0,0.617362 0,1.217084 0,0.599719 -0.0176,1.252359 0,0.65264 -0.0353,1.46403 -0.0882,1.64042 -0.59972,2.64584 -0.51153,1.00541 -1.55223,1.46403 -1.04069,0.44097 -2.75166,0.44097 -1.37584,-0.0176 -1.97556,0.3175 -0.58209,0.3175 -0.58209,1.04069 v 0.17639 q 0.0176,0.45861 0.24695,0.7232 0.24694,0.24694 0.82903,0.38805 0.58208,0.12348 1.62278,0.15875 2.61055,0.0706 3.95111,0.84667 1.34056,0.77611 1.51695,2.68111 0.0176,0.24695 0.0176,0.49389 0,0.24695 -0.0176,0.54681 -0.10584,1.32292 -0.79375,2.09903 -0.68792,0.77611 -1.90501,1.11125 -1.19944,0.33514 -2.80458,0.33514 z m 0.0529,-2.04611 q 0.89958,0 1.56986,-0.14112 0.67028,-0.14111 1.05833,-0.51152 0.38806,-0.35278 0.44097,-1.00542 0.0353,-0.22931 0.0176,-0.42333 0,-0.17639 -0.0176,-0.38806 -0.0705,-0.67028 -0.45861,-0.98778 -0.38805,-0.3175 -1.05833,-0.44097 -0.65264,-0.12347 -1.55222,-0.15875 -1.34056,-0.0706 -2.08139,0.26458 -0.74084,0.35278 -0.82903,1.3582 -0.0176,0.17639 -0.0176,0.38805 0,0.21167 0.0176,0.38806 0.0529,0.68792 0.40569,1.04069 0.37042,0.37042 0.98778,0.49389 0.635,0.12348 1.51695,0.12348 z m -0.15875,-10.98904 q 1.19944,0 1.67569,-0.47625 0.49389,-0.49389 0.54681,-1.65806 0.0353,-0.8643 0.0529,-1.83444 0.0353,-0.987781 0.0353,-2.010837 0,-1.040695 -0.0353,-2.063751 -0.0176,-1.040696 -0.0529,-1.975557 -0.0529,-1.199445 -0.54681,-1.675696 -0.49389,-0.47625 -1.67569,-0.47625 -1.18181,0 -1.69334,0.47625 -0.51153,0.476251 -0.56444,1.693335 -0.0353,1.040695 -0.0529,2.08139 -0.0176,1.023056 -0.0176,2.028474 0,0.987778 0.0176,1.922642 0.0176,0.93486 0.0529,1.79917 0.0705,1.16416 0.56444,1.67569 0.49389,0.49389 1.69334,0.49389 z"
         id="path1352" />
      <path
         d="m 223.43325,86.47923 v -2.963335 h 3.8982 v 2.963335 z m 0.58209,25.25891 V 90.571455 h 2.71639 v 21.166685 z"
         id="path1354" />
      <path
         d="m 234.43987,112.00272 q -2.41653,0 -3.42195,-1.05833 -1.00541,-1.07598 -1.07597,-3.49251 -0.0176,-0.68791 -0.0176,-1.53458 0,-0.84667 0.0529,-1.56986 h 2.41653 q -0.0353,1.02305 -0.0353,1.86972 0,0.82903 0.0176,1.48167 0.0353,1.23472 0.51153,1.69333 0.47625,0.45861 1.55222,0.45861 1.18181,0 1.6757,-0.45861 0.51152,-0.45861 0.5468,-1.69333 0,-0.51153 0,-0.86431 0.0176,-0.35278 0.0176,-0.68792 0.0176,-0.35277 0,-0.81138 -0.0176,-1.21709 -0.3175,-1.86973 -0.28222,-0.65264 -1.14653,-0.93486 l -1.76389,-0.58208 q -1.27,-0.4057 -2.04611,-1.02306 -0.77611,-0.61736 -1.12889,-1.60514 -0.35278,-1.005417 -0.38806,-2.55764 -0.0176,-0.49389 0,-0.917223 0.0176,-0.440973 0.0353,-0.934862 0.0176,-2.469446 1.0407,-3.52778 1.02305,-1.075973 3.61597,-1.075973 2.45181,0 3.42195,1.058334 0.98778,1.040695 1.07597,3.439586 0,0.670278 0,1.516945 0,0.846667 -0.0353,1.569862 h -2.50472 q 0.0353,-0.546806 0.0353,-1.164167 0,-0.635001 0,-1.199446 0,-0.582083 -0.0176,-0.987778 -0.0176,-1.199445 -0.44097,-1.640418 -0.42334,-0.458611 -1.53459,-0.458611 -1.12889,0 -1.55222,0.458611 -0.42333,0.440973 -0.45861,1.640418 -0.0176,0.582084 -0.0353,0.987778 -0.0176,0.405695 0,1.040696 0.0176,1.234723 0.24694,2.010834 0.24695,0.776112 1.25237,1.111251 l 1.64041,0.493893 q 1.79917,0.51152 2.66348,1.64041 0.88194,1.12889 0.88194,3.38667 0,0.52917 -0.0176,1.14653 0,0.61736 -0.0176,1.14653 -0.0529,2.38125 -1.11126,3.43959 -1.05833,1.05833 -3.63361,1.05833 z"
         id="path1356" />
      <path
         d="m 247.4926,112.00272 q -2.66347,0 -3.70417,-1.05833 -1.02305,-1.07598 -1.02305,-3.49251 V 92.705762 h -1.51695 v -2.134307 h 1.55223 v -5.997226 h 2.71639 v 5.997226 h 3.21028 v 2.134307 h -3.24556 v 15.010708 q 0,1.23472 0.35278,1.71097 0.37041,0.45861 1.69333,0.45861 0.49389,0 0.81139,-0.0176 0.3175,-0.0353 0.74083,-0.0882 v 2.04611 q -0.35277,0.0706 -0.75847,0.12347 -0.40569,0.0529 -0.82903,0.0529 z"
         id="path1358" />
      <path
         d="m 255.20077,112.00272 q -2.41653,0 -3.42195,-1.05833 -1.00542,-1.07598 -1.07597,-3.49251 -0.0176,-0.68791 -0.0176,-1.53458 0,-0.84667 0.0529,-1.56986 h 2.41653 q -0.0353,1.02305 -0.0353,1.86972 0,0.82903 0.0176,1.48167 0.0353,1.23472 0.51153,1.69333 0.47625,0.45861 1.55223,0.45861 1.1818,0 1.67569,-0.45861 0.51153,-0.45861 0.54681,-1.69333 0,-0.51153 0,-0.86431 0.0176,-0.35278 0.0176,-0.68792 0.0176,-0.35277 0,-0.81138 -0.0176,-1.21709 -0.3175,-1.86973 -0.28223,-0.65264 -1.14653,-0.93486 l -1.76389,-0.58208 q -1.27,-0.4057 -2.04612,-1.02306 -0.77611,-0.61736 -1.12888,-1.60514 -0.35278,-1.005417 -0.38806,-2.55764 -0.0176,-0.49389 0,-0.917223 0.0176,-0.440973 0.0353,-0.934862 0.0176,-2.469446 1.04069,-3.52778 1.02306,-1.075973 3.61598,-1.075973 2.4518,0 3.42194,1.058334 0.98778,1.040695 1.07598,3.439586 0,0.670278 0,1.516945 0,0.846667 -0.0353,1.569862 h -2.50473 q 0.0353,-0.546806 0.0353,-1.164167 0,-0.635001 0,-1.199446 0,-0.582083 -0.0176,-0.987778 -0.0176,-1.199445 -0.44097,-1.640418 -0.42333,-0.458611 -1.53458,-0.458611 -1.12889,0 -1.55223,0.458611 -0.42333,0.440973 -0.45861,1.640418 -0.0176,0.582084 -0.0353,0.987778 -0.0176,0.405695 0,1.040696 0.0176,1.234723 0.24695,2.010834 0.24694,0.776112 1.25236,1.111251 l 1.64042,0.493893 q 1.79917,0.51152 2.66347,1.64041 0.88195,1.12889 0.88195,3.38667 0,0.52917 -0.0176,1.14653 0,0.61736 -0.0176,1.14653 -0.0529,2.38125 -1.11125,3.43959 -1.05833,1.05833 -3.63361,1.05833 z"
         id="path1360" />
    </g>
    <path
       id="path2698"
       style="font-variation-settings:'wght' 300;fill:none;stroke:#000000;stroke-width:2.95533"
       d="M 75.675182,99.229355 A 24.611008,24.644501 0 0 1 51.064175,123.87386 24.611008,24.644501 0 0 1 26.453167,99.229355 24.611008,24.644501 0 0 1 51.064175,74.584854 24.611008,24.644501 0 0 1 75.675182,99.229355 Z" />
    <g
       aria-label="&lt;/&gt;"
       transform="scale(0.99932026,1.0006802)"
       id="text4975"
       style="font-weight:bold;font-size:22.2416px;line-height:1.25;font-family:Rajdhani;-inkscape-font-specification:'Rajdhani, Bold';stroke-width:0.260643">
      <path
         d="m 45.516369,101.31568 v 1.46794 q 0,0.5338 -0.422591,0.64501 l -6.694721,1.75708 6.694721,1.75709 q 0.422591,0.089 0.422591,0.64501 v 1.4457 q 0,0.48932 -0.533799,0.33362 l -8.318358,-2.69123 q -0.600523,-0.20017 -0.600523,-0.88966 v -1.20105 q 0,-0.68949 0.600523,-0.88966 l 8.318358,-2.69124 q 0.533799,-0.20017 0.533799,0.31139 z"
         id="path1214" />
      <path
         d="m 49.808991,112.45872 h -1.712603 q -0.533798,0 -0.355865,-0.46708 0.711731,-1.82381 2.535542,-6.67248 1.823811,-4.84867 2.535542,-6.694718 0.200175,-0.467073 0.600524,-0.467073 h 1.712603 q 0.533798,0 0.355865,0.467073 l -5.071084,13.367198 q -0.177933,0.46708 -0.600524,0.46708 z"
         id="path1216" />
      <path
         d="m 57.726967,102.78362 v -1.46794 q 0,-0.51156 0.533799,-0.31139 l 8.318358,2.69124 q 0.600523,0.20017 0.600523,0.88966 v 1.20105 q 0,0.68949 -0.600523,0.88966 l -8.318358,2.69123 q -0.533799,0.1557 -0.533799,-0.33362 v -1.4457 q 0,-0.55604 0.422591,-0.64501 l 6.694721,-1.75709 -6.694721,-1.75708 q -0.422591,-0.11121 -0.422591,-0.64501 z"
         id="path1218" />
    </g>
    <g
       aria-label="o"
       transform="scale(0.99932025,1.0006802)"
       id="text7443"
       style="font-weight:600;font-size:22.2416px;line-height:1.25;font-family:Rajdhani;-inkscape-font-specification:'Rajdhani, Semi-Bold';stroke-width:0.260643">
      <path
         d="m 51.800223,93.279709 h -1.957261 q -1.645878,0 -2.557784,-0.911906 -0.889664,-0.911905 -0.889664,-2.535542 v -4.44832 q 0,-1.645879 0.889664,-2.535543 0.911906,-0.911905 2.557784,-0.911905 h 1.957261 q 1.623637,0 2.535542,0.911905 0.934147,0.889664 0.934147,2.535543 v 4.44832 q 0,1.623637 -0.934147,2.535542 -0.911905,0.911906 -2.535542,0.911906 z m -1.645879,-1.890536 h 1.356738 q 1.601395,0 1.601395,-1.623637 v -4.31487 q 0,-1.623637 -1.601395,-1.623637 h -1.356738 q -0.84518,0 -1.223288,0.400349 -0.378107,0.378107 -0.378107,1.223288 v 4.31487 q 0,0.845181 0.378107,1.24553 0.378108,0.378107 1.223288,0.378107 z"
         id="path1221" />
    </g>
    <path
       id="rect8415-2-2-6-5-5-7"
       style="font-variation-settings:'wght' 500;stroke:#ffffff;stroke-width:3"
       d="m 65.087502,112.71251 h 8.130995 v 8.131 h -8.130995 z" />
    <path
       id="rect8415-2-2-6-5-5-7-4"
       style="font-variation-settings:'wght' 500;stroke:#ffffff;stroke-width:3"
       d="m 47.431503,120.19192 h 8.130996 v 8.131 h -8.130996 z" />
    <path
       id="rect8415-2-2-6-5-5-7-4-0"
       style="font-variation-settings:'wght' 500;stroke:#ffffff;stroke-width:3"
       d="m 29.104166,112.78357 h 8.130996 v 8.131 h -8.130996 z" />
    <path
       id="rect8415-2-2-6-5-5-7-6"
       style="font-variation-settings:'wght' 500;stroke:#ffffff;stroke-width:3"
       d="m 71.508583,95.056496 h 8.130996 v 8.130994 h -8.130996 z" />
    <path
       id="rect8415-2-2-6-5-5-7-4-1"
       style="font-variation-settings:'wght' 500;stroke:#ffffff;stroke-width:3"
       d="m 22.825253,95.321083 h 8.130995 v 8.130997 h -8.130995 z" />
    <path
       id="rect8415-2-2-6-5-5-7-4-9"
       style="font-variation-settings:'wght' 500;stroke:#ffffff;stroke-width:3"
       d="m 28.646086,77.858582 h 8.130995 v 8.130998 h -8.130995 z" />
    <path
       id="rect8415-2-2-6-5-5-7-4-8"
       style="font-variation-settings:'wght' 500;stroke:#ffffff;stroke-width:3"
       d="m 47.696083,70.714828 h 8.130996 v 8.130999 h -8.130996 z" />
    <path
       id="rect8415-2-2-6-5-5-7-4-04"
       style="font-variation-settings:'wght' 500;stroke:#ffffff;stroke-width:3"
       d="m 65.158585,77.787498 h 8.130995 v 8.130999 h -8.130995 z" />
  </g>
  <metadata
     id="metadata9491">
    <rdf:RDF>
      <cc:Work
         rdf:about="">
        <dc:title>Logo</dc:title>
        <dc:creator>
          <cc:Agent>
            <dc:title>Parijat Khan</dc:title>
          </cc:Agent>
        </dc:creator>
        <dc:publisher>
          <cc:Agent>
            <dc:title>Softwareologists</dc:title>
          </cc:Agent>
        </dc:publisher>
      </cc:Work>
    </rdf:RDF>
  </metadata>
</svg>
